<svg width="1396" height="420" viewBox="0 0 1396 420" version="1.1" xmlns="http://www.w3.org/2000/svg" xmlns:xlink="http://www.w3.org/1999/xlink">
<title>Fairybread</title>
<desc>Created using Figma</desc>
<g id="Canvas" transform="matrix(4 0 0 4 8332 4924)">
<g id="Fairybread">
<g id="Fairybread">
<use xlink:href="#path0_fill" transform="translate(-2083 -1231)" fill="url(#paint0_linear)"/>
</g>
</g>
</g>
<defs>
<linearGradient id="paint0_linear" x1="0" y1="0" x2="1" y2="0" gradientUnits="userSpaceOnUse" gradientTransform="matrix(276.573 26.82 -127.611 1010.23 85.257 -466.8)">
<stop offset="0" stop-color="#FF008A"/>
<stop offset="0.160221" stop-color="#FDCA21"/>
<stop offset="0.276243" stop-color="#9BF44A"/>
<stop offset="0.430939" stop-color="#01FAFC"/>
<stop offset="0.61326" stop-color="#2B2DFE"/>
<stop offset="0.723757" stop-color="#6A00FD"/>
<stop offset="0.913139" stop-color="#FF05FA"/>
</linearGradient>
<path id="path0_fill" d="M 82.2836 14.8443C 83.0977 14.8443 83.9716 14.9401 84.9054 15.1316C 85.8632 15.2993 86.7491 15.5986 87.5632 16.0295C 88.3773 16.4366 89.0477 16.9993 89.5745 17.7176C 90.1013 18.412 90.3647 19.2859 90.3647 20.3395C 90.3647 21.6324 89.9816 22.8057 89.2153 23.8592C 88.4731 24.9128 87.4195 25.8226 86.0547 26.5889C 84.6899 27.3311 83.0498 27.9177 81.1342 28.3487C 79.2427 28.7558 77.1476 28.9593 74.8489 28.9593C 72.263 28.9593 69.4615 28.7797 66.4446 28.4206C 65.8939 30.1445 65.4749 32.072 65.1875 34.203C 64.9242 36.3341 64.7805 38.7045 64.7565 41.3144C 65.6664 41.2905 66.5883 41.2785 67.5221 41.2785C 68.4798 41.2546 69.4615 41.2426 70.4672 41.2426C 71.8081 41.2426 73.1609 41.2665 74.5257 41.3144C 75.8905 41.3384 77.2673 41.3743 78.656 41.4222C 79.0631 41.4461 79.3744 41.6017 79.5899 41.8891C 79.8293 42.1525 79.949 42.4637 79.949 42.8229C 79.949 43.206 79.8173 43.5173 79.5539 43.7567C 79.2906 43.9961 78.9793 44.1159 78.6201 44.1159C 77.2553 44.1159 75.8905 44.0919 74.5257 44.044C 73.1848 43.9961 71.8559 43.9722 70.539 43.9722C 69.5334 43.9722 68.5517 43.9842 67.5939 44.0081C 66.6362 44.0081 65.6904 44.0201 64.7565 44.044C 64.7565 44.3792 64.7565 44.7025 64.7565 45.0138C 64.7805 45.325 64.7925 45.6483 64.7925 45.9835C 64.7925 49.7188 64.2298 53.047 63.1044 55.9681C 61.979 58.8654 60.3269 61.3077 58.148 63.295C 55.993 65.2824 53.3353 66.7908 50.1747 67.8204C 47.014 68.85 43.3865 69.3648 39.2921 69.3648C 36.2752 69.3648 33.5934 69.0895 31.2469 68.5387C 28.9244 68.012 26.8771 67.3056 25.1053 66.4197C 23.3574 65.5338 21.8489 64.5401 20.5799 63.4387C 19.3348 62.3133 18.2932 61.1879 17.4552 60.0626C 16.6171 58.9133 15.9467 57.8118 15.4439 56.7583C 14.9411 55.6808 14.5699 54.759 14.3305 53.9928C 14.3065 53.9209 14.2826 53.8611 14.2587 53.8132C 14.2587 53.7413 14.2587 53.6695 14.2587 53.5977C 14.2587 53.2385 14.3903 52.9273 14.6537 52.6639C 14.9171 52.3765 15.2523 52.2329 15.6594 52.2329C 15.9467 52.2329 16.1981 52.3167 16.4136 52.4843C 16.6531 52.6519 16.8207 52.8794 16.9164 53.1667C 17.1319 53.8371 17.4552 54.6392 17.8862 55.5731C 18.3172 56.5069 18.9038 57.4766 19.6461 58.4823C 20.4123 59.464 21.3461 60.4457 22.4475 61.4274C 23.5729 62.4091 24.9257 63.283 26.506 64.0492C 28.1103 64.8154 29.9539 65.438 32.0371 65.9169C 34.1441 66.3958 36.5625 66.6352 39.2921 66.6352C 46.8105 66.6352 52.4853 64.8873 56.3163 61.3915C 60.1713 57.8956 62.0988 52.7357 62.0988 45.9117C 62.0988 45.6243 62.0868 45.337 62.0628 45.0497C 62.0628 44.7384 62.0628 44.4391 62.0628 44.1518C 59.6445 44.2476 57.4177 44.3673 55.3825 44.5109C 53.3472 44.6307 51.5634 44.7623 50.031 44.906C 48.5225 45.0257 47.3014 45.1335 46.3676 45.2293C 45.4337 45.3011 44.8591 45.337 44.6436 45.337C 44.2365 45.337 43.8774 45.2293 43.5661 45.0138C 43.2548 44.7743 43.0992 44.4271 43.0992 43.9722C 43.0992 43.637 43.2189 43.3497 43.4584 43.1102C 43.6978 42.8468 43.9851 42.6912 44.3203 42.6433C 44.3443 42.6433 44.7992 42.5954 45.6852 42.4996C 46.595 42.4039 47.8401 42.2961 49.4204 42.1764C 51.0007 42.0327 52.8684 41.901 55.0233 41.7813C 57.1783 41.6377 59.5248 41.5179 62.0628 41.4222C 62.1107 36.1305 62.6614 31.677 63.715 28.0614C 61.1051 27.6783 58.4473 27.2234 55.7416 26.6966C 53.036 26.1459 50.3423 25.5712 47.6605 24.9726C 44.9788 24.374 42.333 23.7874 39.7231 23.2127C 37.1371 22.6141 34.647 22.0754 32.2526 21.5965C 29.8582 21.1176 27.6074 20.7345 25.5004 20.4472C 23.3933 20.1599 21.4778 20.0162 19.7538 20.0162C 17.3355 20.0162 15.0847 20.2676 13.0016 20.7705C 10.9185 21.2493 9.11069 21.9557 7.57828 22.8895C 6.0698 23.8233 4.8726 24.9726 3.98668 26.3374C 3.12469 27.6783 2.6937 29.2107 2.6937 30.9347C 2.6937 32.0601 2.89722 33.0777 3.30427 33.9875C 3.73526 34.8735 4.21414 35.6397 4.74091 36.2862C 5.26768 36.9087 5.75853 37.3996 6.21347 37.7587C 6.6684 38.0939 6.91982 38.2735 6.9677 38.2975C 7.1832 38.4172 7.33884 38.5848 7.43461 38.8003C 7.53039 39.0158 7.57828 39.2313 7.57828 39.4468C 7.57828 39.8538 7.43461 40.189 7.14728 40.4524C 6.8839 40.6919 6.5846 40.8116 6.24938 40.8116C 5.986 40.8116 5.73459 40.7278 5.49515 40.5602C 4.92049 40.1771 4.30992 39.6742 3.66343 39.0517C 3.01694 38.4292 2.41834 37.7228 1.86763 36.9327C 1.34086 36.1186 0.8979 35.2087 0.53874 34.203C 0.17958 33.1974 0 32.1079 0 30.9347C 0 28.7797 0.502824 26.8642 1.50847 25.1881C 2.53806 23.512 3.93879 22.0874 5.71064 20.9141C 7.4825 19.7409 9.56563 18.8549 11.96 18.2563C 14.3784 17.6338 16.9883 17.3225 19.7897 17.3225C 21.4419 17.3225 23.3215 17.4782 25.4285 17.7894C 27.5356 18.0768 29.7983 18.4599 32.2167 18.9387C 34.6589 19.4176 37.209 19.9564 39.8668 20.555C 42.5485 21.1536 45.2781 21.7641 48.0556 22.3867C 50.8331 22.9853 53.6226 23.5599 56.424 24.1106C 59.2255 24.6614 61.9671 25.1283 64.6488 25.5114C 65.3192 23.6437 66.277 22.0395 67.5221 20.6986C 68.7911 19.3338 70.2278 18.2204 71.832 17.3584C 73.4362 16.4965 75.1363 15.8619 76.9321 15.4549C 78.7518 15.0478 80.5356 14.8443 82.2836 14.8443ZM 87.635 20.2676C 87.635 19.693 87.4435 19.238 87.0604 18.9028C 86.7012 18.5437 86.2463 18.2683 85.6956 18.0768C 85.1449 17.8613 84.5582 17.7176 83.9357 17.6458C 83.3371 17.5739 82.7864 17.538 82.2836 17.538C 81.1342 17.538 79.8532 17.6577 78.4405 17.8972C 77.0518 18.1366 75.663 18.5676 74.2743 19.1902C 72.9095 19.8127 71.6165 20.6627 70.3954 21.7402C 69.1982 22.8177 68.2165 24.1945 67.4502 25.8705C 70.108 26.1579 72.5623 26.3015 74.813 26.3015C 76.6567 26.3015 78.3567 26.1579 79.9131 25.8705C 81.4934 25.5593 82.8462 25.1402 83.9716 24.6135C 85.1209 24.0867 86.0188 23.4522 86.6653 22.7099C 87.3118 21.9677 87.635 21.1536 87.635 20.2676ZM 103.33 57.9794C 103.235 58.171 103.031 58.578 102.72 59.2006C 102.432 59.7992 102.049 60.4936 101.57 61.2837C 101.116 62.0739 100.577 62.8999 99.9542 63.7619C 99.3317 64.6239 98.6373 65.414 97.8711 66.1324C 97.1049 66.8507 96.2788 67.4493 95.3929 67.9282C 94.507 68.3831 93.5731 68.6106 92.5914 68.6106C 91.2027 68.6106 90.0294 68.1676 89.0717 67.2817C 88.1379 66.3958 87.4555 65.2824 87.0245 63.9415C 86.2104 65.3063 85.2406 66.3958 84.1153 67.2098C 82.9899 68 81.8645 68.3951 80.7392 68.3951C 79.8532 68.3951 79.0511 68.2394 78.3328 67.9282C 77.6145 67.593 77.0039 67.138 76.5011 66.5634C 75.9983 65.9648 75.6032 65.2704 75.3158 64.4802C 75.0525 63.6901 74.9208 62.8281 74.9208 61.8943C 74.9208 60.0266 75.232 58.3865 75.8546 56.9738C 76.5011 55.5371 77.3152 54.3399 78.2969 53.3822C 79.2786 52.4244 80.3561 51.7061 81.5293 51.2272C 82.7265 50.7483 83.8758 50.5089 84.9773 50.5089C 85.7195 50.5089 86.4019 50.6167 87.0245 50.8322C 87.647 51.0237 88.1738 51.2392 88.6048 51.4786C 89.0597 51.7181 89.4069 51.9455 89.6463 52.161C 89.8858 52.3526 90.0175 52.4603 90.0414 52.4843C 90.3048 52.7956 90.4365 53.1188 90.4365 53.454C 90.4365 53.8132 90.3048 54.1364 90.0414 54.4238C 89.778 54.6871 89.4668 54.8188 89.1076 54.8188C 88.7245 54.8188 88.4012 54.6871 88.1379 54.4238C 88.09 54.3759 87.9822 54.2921 87.8146 54.1723C 87.647 54.0287 87.4195 53.885 87.1322 53.7413C 86.8449 53.5977 86.4977 53.478 86.0906 53.3822C 85.7075 53.2625 85.2646 53.2026 84.7618 53.2026C 84.0195 53.2026 83.2293 53.3702 82.3913 53.7054C 81.5533 54.0406 80.7871 54.5674 80.0927 55.2857C 79.3983 55.9801 78.8117 56.866 78.3328 57.9435C 77.8779 58.9971 77.6504 60.2541 77.6504 61.7147C 77.6504 62.1696 77.6983 62.6365 77.7941 63.1154C 77.8898 63.5704 78.0574 63.9894 78.2969 64.3725C 78.5363 64.7556 78.8596 65.0669 79.2666 65.3063C 79.6737 65.5457 80.1765 65.6655 80.7751 65.6655C 81.2061 65.6655 81.6969 65.5218 82.2476 65.2345C 82.8223 64.9471 83.361 64.5042 83.8639 63.9056C 84.3906 63.307 84.8575 62.5527 85.2646 61.6429C 85.6956 60.733 85.9949 59.6555 86.1625 58.4104C 86.2104 58.0752 86.366 57.7999 86.6294 57.5844C 86.8928 57.3449 87.204 57.2252 87.5632 57.2252C 87.8984 57.2252 88.1858 57.3569 88.4252 57.6203C 88.6886 57.8837 88.8322 58.183 88.8562 58.5182C 88.8801 58.9731 88.928 59.6196 88.9998 60.4576C 89.0717 61.2717 89.2273 62.0858 89.4668 62.8999C 89.7301 63.714 90.1132 64.4204 90.6161 65.019C 91.1189 65.6176 91.8133 65.9169 92.6992 65.9169C 93.2738 65.9169 93.8365 65.7612 94.3872 65.45C 94.9619 65.1387 95.5126 64.7316 96.0394 64.2288C 96.5901 63.7021 97.1049 63.1154 97.5838 62.4689C 98.0866 61.7985 98.5415 61.1281 98.9486 60.4576C 99.3556 59.7872 99.7148 59.1407 100.026 58.5182C 100.337 57.8956 100.601 57.3569 100.816 56.902C 100.936 56.6386 101.104 56.435 101.319 56.2914C 101.558 56.1477 101.81 56.0759 102.073 56.0759C 102.48 56.0759 102.804 56.2315 103.043 56.5428C 103.306 56.8301 103.438 57.1414 103.438 57.4766C 103.438 57.6442 103.402 57.8118 103.33 57.9794ZM 106.706 39.8059C 106.706 40.7158 106.383 41.494 105.737 42.1405C 105.114 42.763 104.348 43.0743 103.438 43.0743C 102.528 43.0743 101.75 42.763 101.104 42.1405C 100.481 41.494 100.17 40.7158 100.17 39.8059C 100.17 39.351 100.254 38.932 100.421 38.5489C 100.589 38.1418 100.816 37.7946 101.104 37.5073C 101.415 37.196 101.762 36.9566 102.145 36.789C 102.552 36.6214 102.983 36.5376 103.438 36.5376C 103.893 36.5376 104.312 36.6214 104.695 36.789C 105.102 36.9566 105.449 37.196 105.737 37.5073C 106.048 37.7946 106.287 38.1418 106.455 38.5489C 106.623 38.932 106.706 39.351 106.706 39.8059ZM 100.888 60.8527C 100.888 57.4048 101.104 53.9688 101.535 50.5448C 101.582 50.2096 101.726 49.9223 101.966 49.6828C 102.229 49.4195 102.564 49.2878 102.971 49.2878C 103.33 49.2878 103.63 49.4314 103.869 49.7188C 104.109 49.9821 104.228 50.2934 104.228 50.6526C 104.228 50.7962 104.192 51.2272 104.12 51.9455C 104.073 52.6639 104.001 53.5259 103.905 54.5315C 103.833 55.5132 103.761 56.5667 103.689 57.6921C 103.642 58.7935 103.618 59.8112 103.618 60.745C 103.618 62.014 103.737 63.0436 103.977 63.8337C 104.24 64.6 104.563 65.1986 104.947 65.6295C 105.354 66.0605 105.773 66.3479 106.204 66.4915C 106.659 66.6352 107.09 66.707 107.497 66.707C 108.167 66.707 108.861 66.4676 109.58 65.9887C 110.298 65.5098 111.028 64.8394 111.771 63.9774C 112.537 63.1154 113.303 62.0858 114.069 60.8886C 114.835 59.6675 115.59 58.3147 116.332 56.8301C 116.452 56.5907 116.619 56.4111 116.835 56.2914C 117.05 56.1477 117.29 56.0759 117.553 56.0759C 117.936 56.0759 118.247 56.2196 118.487 56.5069C 118.75 56.7942 118.882 57.1055 118.882 57.4407C 118.882 57.6801 118.834 57.8837 118.738 58.0513C 118.451 58.602 118.092 59.2724 117.661 60.0626C 117.23 60.8527 116.739 61.6668 116.188 62.5049C 115.638 63.3429 115.027 64.1809 114.357 65.019C 113.71 65.8331 113.016 66.5753 112.273 67.2458C 111.531 67.8923 110.753 68.419 109.939 68.8261C 109.125 69.2331 108.299 69.4366 107.461 69.4366C 106.383 69.4366 105.437 69.2092 104.623 68.7542C 103.809 68.2993 103.115 67.6887 102.54 66.9225C 101.989 66.1563 101.57 65.2584 101.283 64.2288C 101.02 63.1753 100.888 62.0499 100.888 60.8527ZM 104.695 39.8059C 104.695 39.4707 104.563 39.1834 104.3 38.944C 104.061 38.6806 103.773 38.5489 103.438 38.5489C 103.103 38.5489 102.816 38.6806 102.576 38.944C 102.337 39.1834 102.217 39.4707 102.217 39.8059C 102.217 40.1412 102.337 40.4285 102.576 40.6679C 102.816 40.9074 103.103 41.0271 103.438 41.0271C 103.773 41.0271 104.061 40.9074 104.3 40.6679C 104.563 40.4285 104.695 40.1412 104.695 39.8059ZM 120.067 53.2385C 119.971 53.885 119.852 54.4956 119.708 55.0702C 119.564 55.621 119.421 56.1118 119.277 56.5428C 119.157 56.9498 119.05 57.2851 118.954 57.5484C 118.858 57.8118 118.798 57.9555 118.774 57.9794C 118.535 58.5301 118.116 58.8055 117.517 58.8055C 117.182 58.8055 116.871 58.6858 116.583 58.4463C 116.296 58.183 116.152 57.8597 116.152 57.4766C 116.152 57.3329 116.176 57.2252 116.224 57.1534C 116.272 57.0815 116.344 56.9379 116.44 56.7224C 116.535 56.5069 116.655 56.1477 116.799 55.6449C 116.942 55.1421 117.122 54.3639 117.338 53.3104C 116.931 53.3104 116.512 53.2984 116.081 53.2744C 115.65 53.2505 115.254 53.1667 114.895 53.023C 114.512 52.8794 114.201 52.6519 113.961 52.3406C 113.722 52.0294 113.602 51.5984 113.602 51.0476C 113.602 50.6406 113.722 50.0899 113.961 49.3955C 114.177 48.7011 114.476 48.0187 114.859 47.3483C 115.242 46.6779 115.673 46.1032 116.152 45.6243C 116.631 45.1215 117.11 44.8701 117.589 44.8701C 118.14 44.8701 118.583 45.0736 118.918 45.4807C 119.277 45.8877 119.552 46.3905 119.744 46.9891C 119.935 47.5638 120.067 48.1744 120.139 48.8209C 120.235 49.4673 120.283 50.03 120.283 50.5089C 120.69 50.5089 121.085 50.5089 121.468 50.5089C 121.875 50.485 122.258 50.473 122.617 50.473C 123.982 50.473 125.024 50.7723 125.742 51.3709C 126.46 51.9695 126.819 52.9512 126.819 54.316C 126.819 54.8667 126.783 55.4414 126.712 56.04C 126.64 56.6386 126.556 57.2611 126.46 57.9076C 126.364 58.5301 126.281 59.1527 126.209 59.7752C 126.137 60.3978 126.101 61.0084 126.101 61.607C 126.101 62.4689 126.221 63.1873 126.46 63.7619C 126.7 64.3126 126.999 64.7556 127.358 65.0908C 127.717 65.426 128.1 65.6655 128.507 65.8091C 128.914 65.9288 129.286 65.9887 129.621 65.9887C 130.65 65.9887 131.62 65.6535 132.53 64.9831C 133.44 64.3126 134.278 63.5105 135.044 62.5767C 135.81 61.6189 136.493 60.6133 137.091 59.5597C 137.714 58.5062 138.229 57.5844 138.636 56.7942C 138.755 56.5787 138.923 56.4111 139.139 56.2914C 139.354 56.1717 139.582 56.1118 139.821 56.1118C 140.252 56.1118 140.587 56.2555 140.827 56.5428C 141.066 56.8062 141.186 57.1055 141.186 57.4407C 141.186 57.6801 141.138 57.8956 141.042 58.0872C 140.491 59.0689 139.845 60.1823 139.103 61.4274C 138.384 62.6485 137.558 63.7978 136.624 64.8753C 135.691 65.9528 134.637 66.8627 133.464 67.6049C 132.315 68.3472 131.046 68.7183 129.657 68.7183C 128.795 68.7183 127.981 68.5507 127.214 68.2155C 126.448 67.9042 125.778 67.4493 125.203 66.8507C 124.652 66.2281 124.209 65.4739 123.874 64.588C 123.539 63.6781 123.371 62.6605 123.371 61.5351C 123.371 60.3379 123.491 59.1527 123.731 57.9794C 123.97 56.7822 124.09 55.6449 124.09 54.5674C 124.09 54.1125 123.982 53.7773 123.767 53.5618C 123.575 53.3223 123.132 53.2026 122.438 53.2026C 122.102 53.2026 121.731 53.2026 121.324 53.2026C 120.941 53.2026 120.522 53.2146 120.067 53.2385ZM 117.661 50.5807C 117.661 50.4131 117.649 50.1976 117.625 49.9343C 117.625 49.6469 117.601 49.3716 117.553 49.1082C 117.529 48.8448 117.481 48.6173 117.409 48.4258C 117.362 48.2342 117.302 48.1385 117.23 48.1385C 117.158 48.1385 117.062 48.2342 116.942 48.4258C 116.847 48.5934 116.739 48.8089 116.619 49.0723C 116.5 49.3117 116.392 49.5751 116.296 49.8624C 116.2 50.1497 116.128 50.3892 116.081 50.5807L 117.661 50.5807ZM 151.997 68.5028C 152.835 67.6648 153.685 66.8148 154.547 65.9528C 155.409 65.0669 156.247 64.145 157.061 63.1873C 157.875 62.2295 158.629 61.2358 159.323 60.2062C 160.042 59.1527 160.676 58.0393 161.227 56.866C 161.347 56.6027 161.514 56.4111 161.73 56.2914C 161.945 56.1477 162.185 56.0759 162.448 56.0759C 162.855 56.0759 163.178 56.2196 163.418 56.5069C 163.681 56.7942 163.813 57.1175 163.813 57.4766C 163.813 57.6682 163.777 57.8477 163.705 58.0154C 162.963 59.5717 162.113 60.9964 161.155 62.2894C 160.197 63.5823 159.192 64.8154 158.138 65.9887C 157.085 67.138 156.019 68.2514 154.942 69.3289C 153.864 70.4303 152.835 71.5317 151.853 72.6332C 151.757 74.2853 151.757 75.9374 151.853 77.5896C 151.949 79.2657 151.997 81.0375 151.997 82.9051C 151.997 84.4376 151.949 85.97 151.853 87.5024C 151.757 89.0348 151.601 90.4954 151.386 91.8841C 151.17 93.2968 150.871 94.6138 150.488 95.8349C 150.129 97.056 149.662 98.1096 149.087 98.9955C 148.513 99.9054 147.842 100.612 147.076 101.115C 146.31 101.641 145.412 101.905 144.382 101.905C 142.682 101.905 141.377 101.318 140.467 100.145C 139.558 98.9716 139.103 97.3314 139.103 95.2243C 139.103 94.075 139.222 92.8419 139.462 91.525C 139.725 90.2081 140.084 88.8433 140.539 87.4306C 140.994 86.0418 141.533 84.6291 142.156 83.1925C 142.802 81.7558 143.496 80.3551 144.239 78.9903C 144.981 77.6255 145.771 76.3205 146.609 75.0755C 147.447 73.8543 148.297 72.7409 149.159 71.7353C 149.207 70.586 149.255 69.3888 149.303 68.1437C 149.375 66.9225 149.446 65.7852 149.518 64.7316C 148.896 65.8331 148.118 66.719 147.184 67.3894C 146.274 68.0599 145.268 68.3951 144.167 68.3951C 142.347 68.3951 140.922 67.7845 139.893 66.5634C 138.863 65.3422 138.348 63.6661 138.348 61.5351C 138.348 59.9788 138.492 58.5661 138.779 57.297C 139.091 56.0041 139.414 54.9026 139.749 53.9928C 140.108 53.0589 140.432 52.3526 140.719 51.8737C 141.006 51.3709 141.15 51.1315 141.15 51.1554C 141.413 50.7483 141.784 50.5448 142.263 50.5448C 142.67 50.5448 142.994 50.6885 143.233 50.9758C 143.496 51.2392 143.628 51.5505 143.628 51.9096C 143.628 52.173 143.556 52.4125 143.413 52.628C 143.437 52.604 143.317 52.8075 143.053 53.2385C 142.814 53.6456 142.539 54.2442 142.227 55.0343C 141.94 55.8245 141.665 56.7703 141.401 57.8717C 141.162 58.9731 141.042 60.1823 141.042 61.4992C 141.042 62.8161 141.282 63.8457 141.76 64.588C 142.239 65.3302 143.018 65.7014 144.095 65.7014C 145.46 65.7014 146.693 64.6957 147.794 62.6844C 148.896 60.6492 149.83 57.7041 150.596 53.8491C 150.644 53.5378 150.787 53.2864 151.027 53.0949C 151.266 52.8794 151.554 52.7716 151.889 52.7716C 152.272 52.7716 152.595 52.9033 152.858 53.1667C 153.122 53.4301 153.254 53.7533 153.254 54.1364C 153.254 54.2083 153.206 54.6392 153.11 55.4294C 153.014 56.1956 152.894 57.2252 152.751 58.5182C 152.631 59.8112 152.499 61.3196 152.356 63.0436C 152.212 64.7436 152.092 66.5634 151.997 68.5028ZM 149.123 76.117C 148.046 77.6734 147.052 79.3135 146.142 81.0375C 145.256 82.7615 144.49 84.4735 143.844 86.1735C 143.197 87.8735 142.694 89.5017 142.335 91.0581C 141.976 92.6144 141.796 94.0032 141.796 95.2243C 141.796 96.4694 142 97.4391 142.407 98.1335C 142.814 98.8518 143.46 99.211 144.346 99.211C 145.137 99.211 145.831 98.8159 146.43 98.0258C 147.052 97.2596 147.567 96.1581 147.974 94.7215C 148.405 93.2849 148.728 91.537 148.944 89.4778C 149.159 87.4425 149.267 85.1559 149.267 82.6178C 149.267 81.5882 149.243 80.5467 149.195 79.4931C 149.171 78.4396 149.147 77.3142 149.123 76.117ZM 191.54 58.0513C 191.468 58.1949 191.313 58.4942 191.073 58.9492C 190.834 59.3802 190.522 59.895 190.139 60.4936C 189.756 61.0682 189.301 61.6908 188.774 62.3612C 188.248 63.0077 187.673 63.6063 187.051 64.157C 186.428 64.7077 185.758 65.1626 185.039 65.5218C 184.321 65.881 183.579 66.0605 182.812 66.0605C 181.567 66.0605 180.514 65.845 179.652 65.414C 178.79 64.9591 178.083 64.4563 177.533 63.9056C 177.15 64.7436 176.683 65.5098 176.132 66.2042C 175.581 66.8986 174.971 67.4972 174.3 68C 173.63 68.5268 172.912 68.9338 172.145 69.2211C 171.403 69.5085 170.637 69.6521 169.847 69.6521C 168.386 69.6521 167.141 69.2211 166.111 68.3592C 165.082 67.4972 164.22 66.3479 163.526 64.9112C 162.855 63.4506 162.328 61.7626 161.945 59.8471C 161.562 57.9315 161.263 55.9203 161.047 53.8132C 160.856 51.7061 160.736 49.5751 160.688 47.4201C 160.64 45.2652 160.616 43.218 160.616 41.2785C 160.616 37.5672 160.724 34.3587 160.94 31.653C 161.155 28.9234 161.442 26.6128 161.802 24.7212C 162.185 22.8057 162.616 21.2613 163.095 20.0881C 163.597 18.8909 164.124 17.969 164.675 17.3225C 165.226 16.6521 165.788 16.1972 166.363 15.9577C 166.938 15.7183 167.5 15.5986 168.051 15.5986C 168.937 15.5986 169.715 15.8619 170.385 16.3887C 171.08 16.9155 171.655 17.6577 172.109 18.6155C 172.588 19.5493 172.948 20.6867 173.187 22.0275C 173.426 23.3684 173.546 24.8409 173.546 26.4452C 173.546 29.0072 173.271 31.653 172.72 34.3826C 172.169 37.1122 171.451 39.8419 170.565 42.5715C 169.703 45.2771 168.733 47.9469 167.656 50.5807C 166.578 53.1906 165.513 55.6688 164.459 58.0154C 164.603 59.1886 164.819 60.314 165.106 61.3915C 165.393 62.445 165.764 63.3908 166.219 64.2288C 166.674 65.0429 167.213 65.7014 167.835 66.2042C 168.458 66.6831 169.176 66.9225 169.99 66.9225C 170.805 66.9225 171.571 66.6951 172.289 66.2401C 173.007 65.7612 173.63 65.1507 174.157 64.4084C 174.683 63.6422 175.09 62.7802 175.378 61.8224C 175.689 60.8647 175.845 59.883 175.845 58.8773C 175.845 58.2069 175.773 57.5365 175.629 56.866C 175.51 56.1717 175.306 55.5611 175.019 55.0343C 174.755 54.4836 174.42 54.0406 174.013 53.7054C 173.606 53.3702 173.115 53.2026 172.54 53.2026C 172.109 53.2026 171.774 53.2984 171.535 53.4899C 171.295 53.6575 171.116 53.8611 170.996 54.1005C 170.876 54.316 170.805 54.5315 170.781 54.747C 170.757 54.9625 170.745 55.1062 170.745 55.178C 170.745 55.5132 170.816 55.8484 170.96 56.1836C 171.104 56.5189 171.379 56.8182 171.786 57.0815C 172.193 57.3689 172.397 57.7639 172.397 58.2668C 172.397 58.6738 172.253 58.9971 171.966 59.2365C 171.702 59.4759 171.403 59.5957 171.068 59.5957C 170.589 59.5957 170.158 59.452 169.775 59.1647C 169.416 58.8773 169.104 58.5182 168.841 58.0872C 168.578 57.6322 168.374 57.1534 168.231 56.6505C 168.087 56.1477 168.015 55.6808 168.015 55.2498C 168.015 54.5554 168.135 53.9209 168.374 53.3463C 168.614 52.7477 168.937 52.2448 169.344 51.8378C 169.775 51.4068 170.254 51.0836 170.781 50.8681C 171.331 50.6286 171.906 50.5089 172.505 50.5089C 173.534 50.5089 174.42 50.7483 175.162 51.2272C 175.929 51.7061 176.563 52.3406 177.066 53.1308C 177.569 53.9209 177.94 54.8188 178.179 55.8245C 178.419 56.8301 178.538 57.8477 178.538 58.8773C 178.538 59.4759 178.503 60.0626 178.431 60.6372C 178.526 60.8288 178.682 61.0802 178.898 61.3915C 179.113 61.7027 179.4 62.002 179.76 62.2894C 180.119 62.5767 180.55 62.8281 181.053 63.0436C 181.555 63.2591 182.142 63.3668 182.812 63.3668C 183.387 63.3668 183.974 63.1513 184.572 62.7203C 185.195 62.2654 185.781 61.7147 186.332 61.0682C 186.907 60.3978 187.434 59.6914 187.913 58.9492C 188.391 58.183 188.786 57.4766 189.098 56.8301C 189.217 56.5907 189.385 56.4111 189.601 56.2914C 189.816 56.1477 190.055 56.0759 190.319 56.0759C 190.726 56.0759 191.049 56.2196 191.289 56.5069C 191.552 56.7942 191.684 57.1175 191.684 57.4766C 191.684 57.6203 191.636 57.8118 191.54 58.0513ZM 163.777 53.4181C 164.591 51.4068 165.417 49.2997 166.255 47.0969C 167.093 44.8701 167.847 42.6074 168.518 40.3088C 169.188 38.0101 169.739 35.6876 170.17 33.3411C 170.601 30.9945 170.816 28.684 170.816 26.4093C 170.816 25.5473 170.769 24.6494 170.673 23.7156C 170.601 22.7578 170.457 21.8839 170.242 21.0937C 170.026 20.3036 169.727 19.6451 169.344 19.1183C 168.985 18.5916 168.518 18.3282 167.943 18.3282C 167.752 18.3282 167.5 18.4599 167.189 18.7232C 166.902 18.9627 166.59 19.4057 166.255 20.0521C 165.92 20.6747 165.585 21.5486 165.25 22.674C 164.914 23.7994 164.603 25.236 164.316 26.9839C 164.052 28.7079 163.825 30.791 163.633 33.2333C 163.466 35.6756 163.382 38.5489 163.382 41.8532C 163.382 42.9546 163.394 44.0799 163.418 45.2293C 163.442 46.3546 163.466 47.4321 163.49 48.4617C 163.538 49.4913 163.585 50.4371 163.633 51.2991C 163.681 52.161 163.729 52.8674 163.777 53.4181ZM 192.905 53.2385C 192.809 53.885 192.689 54.4956 192.546 55.0702C 192.402 55.621 192.258 56.1118 192.115 56.5428C 191.995 56.9498 191.887 57.2851 191.791 57.5484C 191.696 57.8118 191.636 57.9555 191.612 57.9794C 191.372 58.5301 190.953 58.8055 190.355 58.8055C 190.02 58.8055 189.708 58.6858 189.421 58.4463C 189.134 58.183 188.99 57.8597 188.99 57.4766C 188.99 57.3329 189.014 57.2252 189.062 57.1534C 189.11 57.0815 189.182 56.9379 189.277 56.7224C 189.373 56.5069 189.493 56.1477 189.636 55.6449C 189.78 55.1421 189.96 54.3639 190.175 53.3104C 189.768 53.3104 189.349 53.2984 188.918 53.2744C 188.487 53.2505 188.092 53.1667 187.733 53.023C 187.35 52.8794 187.039 52.6519 186.799 52.3406C 186.56 52.0294 186.44 51.5984 186.44 51.0476C 186.44 50.6406 186.56 50.0899 186.799 49.3955C 187.015 48.7011 187.314 48.0187 187.697 47.3483C 188.08 46.6779 188.511 46.1032 188.99 45.6243C 189.469 45.1215 189.948 44.8701 190.427 44.8701C 190.977 44.8701 191.42 45.0736 191.756 45.4807C 192.115 45.8877 192.39 46.3905 192.582 46.9891C 192.773 47.5638 192.905 48.1744 192.977 48.8209C 193.072 49.4673 193.12 50.03 193.12 50.5089C 193.527 50.5089 193.922 50.5089 194.306 50.5089C 194.713 50.485 195.096 50.473 195.455 50.473C 196.82 50.473 197.861 50.7723 198.58 51.3709C 199.298 51.9695 199.657 52.9512 199.657 54.316C 199.657 54.8667 199.621 55.4414 199.549 56.04C 199.477 56.6386 199.394 57.2611 199.298 57.9076C 199.202 58.5301 199.118 59.1527 199.046 59.7752C 198.975 60.3978 198.939 61.0084 198.939 61.607C 198.939 62.4689 199.058 63.1873 199.298 63.7619C 199.537 64.3126 199.837 64.7556 200.196 65.0908C 200.555 65.426 200.938 65.6655 201.345 65.8091C 201.752 65.9288 202.123 65.9887 202.458 65.9887C 203.488 65.9887 204.458 65.6535 205.368 64.9831C 206.278 64.3126 207.116 63.5105 207.882 62.5767C 208.648 61.6189 209.33 60.6133 209.929 59.5597C 210.552 58.5062 211.066 57.5844 211.473 56.7942C 211.593 56.5787 211.761 56.4111 211.976 56.2914C 212.192 56.1717 212.419 56.1118 212.659 56.1118C 213.09 56.1118 213.425 56.2555 213.664 56.5428C 213.904 56.8062 214.023 57.1055 214.023 57.4407C 214.023 57.6801 213.976 57.8956 213.88 58.0872C 213.329 59.0689 212.683 60.1823 211.94 61.4274C 211.222 62.6485 210.396 63.7978 209.462 64.8753C 208.528 65.9528 207.475 66.8627 206.302 67.6049C 205.152 68.3472 203.883 68.7183 202.494 68.7183C 201.632 68.7183 200.818 68.5507 200.052 68.2155C 199.286 67.9042 198.615 67.4493 198.041 66.8507C 197.49 66.2281 197.047 65.4739 196.712 64.588C 196.377 63.6781 196.209 62.6605 196.209 61.5351C 196.209 60.3379 196.329 59.1527 196.568 57.9794C 196.808 56.7822 196.927 55.6449 196.927 54.5674C 196.927 54.1125 196.82 53.7773 196.604 53.5618C 196.413 53.3223 195.97 53.2026 195.275 53.2026C 194.94 53.2026 194.569 53.2026 194.162 53.2026C 193.779 53.2026 193.36 53.2146 192.905 53.2385ZM 190.498 50.5807C 190.498 50.4131 190.486 50.1976 190.463 49.9343C 190.463 49.6469 190.439 49.3716 190.391 49.1082C 190.367 48.8448 190.319 48.6173 190.247 48.4258C 190.199 48.2342 190.139 48.1385 190.067 48.1385C 189.996 48.1385 189.9 48.2342 189.78 48.4258C 189.684 48.5934 189.577 48.8089 189.457 49.0723C 189.337 49.3117 189.229 49.5751 189.134 49.8624C 189.038 50.1497 188.966 50.3892 188.918 50.5807L 190.498 50.5807ZM 215.783 64.0492C 216.286 64.7436 216.933 65.3063 217.723 65.7373C 218.513 66.1443 219.483 66.3479 220.632 66.3479C 221.805 66.3479 222.871 66.0725 223.829 65.5218C 224.786 64.9471 225.66 64.2049 226.45 63.295C 227.241 62.3851 227.947 61.3675 228.569 60.2421C 229.192 59.1168 229.755 57.9914 230.257 56.866C 230.377 56.6027 230.545 56.4111 230.76 56.2914C 230.976 56.1477 231.215 56.0759 231.479 56.0759C 231.886 56.0759 232.209 56.2196 232.448 56.5069C 232.712 56.7942 232.843 57.1055 232.843 57.4407C 232.843 57.5604 232.831 57.6682 232.808 57.7639C 232.784 57.8358 232.748 57.9196 232.7 58.0154C 231.048 61.6548 229.24 64.3964 227.276 66.2401C 225.337 68.0838 223.134 69.0296 220.668 69.0775C 219.088 69.0775 217.723 68.7662 216.573 68.1437C 215.424 67.5451 214.478 66.7669 213.736 65.8091C 212.994 64.8274 212.443 63.726 212.084 62.5049C 211.725 61.2837 211.545 60.0626 211.545 58.8414C 211.545 57.6203 211.689 56.4949 211.976 55.4653C 212.288 54.4357 212.718 53.5378 213.269 52.7716C 213.844 52.0054 214.514 51.4068 215.281 50.9758C 216.071 50.5448 216.933 50.3293 217.866 50.3293C 218.417 50.3293 218.956 50.449 219.483 50.6885C 220.033 50.904 220.524 51.2272 220.955 51.6582C 221.386 52.0653 221.733 52.5681 221.997 53.1667C 222.26 53.7653 222.392 54.4477 222.392 55.2139C 222.392 56.1956 222.224 57.1175 221.889 57.9794C 221.554 58.8414 221.087 59.6435 220.488 60.3858C 219.914 61.1281 219.219 61.8105 218.405 62.433C 217.591 63.0556 216.717 63.5943 215.783 64.0492ZM 214.706 61.7147C 215.448 61.4034 216.119 61.0084 216.717 60.5295C 217.34 60.0506 217.866 59.5238 218.297 58.9492C 218.728 58.3745 219.064 57.7759 219.303 57.1534C 219.543 56.5069 219.662 55.8604 219.662 55.2139C 219.662 54.4956 219.483 53.9568 219.124 53.5977C 218.764 53.2146 218.345 53.023 217.866 53.023C 217.22 53.023 216.669 53.2026 216.214 53.5618C 215.759 53.9209 215.388 54.3878 215.101 54.9625C 214.814 55.5371 214.598 56.1836 214.454 56.902C 214.335 57.5963 214.275 58.2907 214.275 58.9851C 214.275 59.4161 214.311 59.871 214.383 60.3499C 214.478 60.8288 214.586 61.2837 214.706 61.7147ZM 258.056 57.9794C 257.961 58.171 257.757 58.578 257.446 59.2006C 257.159 59.7992 256.775 60.4936 256.297 61.2837C 255.842 62.0739 255.303 62.8999 254.68 63.7619C 254.058 64.6239 253.363 65.414 252.597 66.1324C 251.831 66.8507 251.005 67.4493 250.119 67.9282C 249.233 68.3831 248.299 68.6106 247.318 68.6106C 245.929 68.6106 244.756 68.1676 243.798 67.2817C 242.864 66.3958 242.182 65.2824 241.751 63.9415C 240.937 65.3063 239.967 66.3958 238.841 67.2098C 237.716 68 236.591 68.3951 235.465 68.3951C 234.579 68.3951 233.777 68.2394 233.059 67.9282C 232.341 67.593 231.73 67.138 231.227 66.5634C 230.724 65.9648 230.329 65.2704 230.042 64.4802C 229.779 63.6901 229.647 62.8281 229.647 61.8943C 229.647 60.0266 229.958 58.3865 230.581 56.9738C 231.227 55.5371 232.041 54.3399 233.023 53.3822C 234.005 52.4244 235.082 51.7061 236.255 51.2272C 237.453 50.7483 238.602 50.5089 239.703 50.5089C 240.446 50.5089 241.128 50.6167 241.751 50.8322C 242.373 51.0237 242.9 51.2392 243.331 51.4786C 243.786 51.7181 244.133 51.9455 244.372 52.161C 244.612 52.3526 244.744 52.4603 244.768 52.4843C 245.031 52.7956 245.163 53.1188 245.163 53.454C 245.163 53.8132 245.031 54.1364 244.768 54.4238C 244.504 54.6871 244.193 54.8188 243.834 54.8188C 243.451 54.8188 243.127 54.6871 242.864 54.4238C 242.816 54.3759 242.708 54.2921 242.541 54.1723C 242.373 54.0287 242.146 53.885 241.858 53.7413C 241.571 53.5977 241.224 53.478 240.817 53.3822C 240.434 53.2625 239.991 53.2026 239.488 53.2026C 238.746 53.2026 237.955 53.3702 237.117 53.7054C 236.279 54.0406 235.513 54.5674 234.819 55.2857C 234.124 55.9801 233.538 56.866 233.059 57.9435C 232.604 58.9971 232.377 60.2541 232.377 61.7147C 232.377 62.1696 232.424 62.6365 232.52 63.1154C 232.616 63.5704 232.784 63.9894 233.023 64.3725C 233.262 64.7556 233.586 65.0669 233.993 65.3063C 234.4 65.5457 234.903 65.6655 235.501 65.6655C 235.932 65.6655 236.423 65.5218 236.974 65.2345C 237.548 64.9471 238.087 64.5042 238.59 63.9056C 239.117 63.307 239.584 62.5527 239.991 61.6429C 240.422 60.733 240.721 59.6555 240.889 58.4104C 240.937 58.0752 241.092 57.7999 241.356 57.5844C 241.619 57.3449 241.93 57.2252 242.289 57.2252C 242.625 57.2252 242.912 57.3569 243.151 57.6203C 243.415 57.8837 243.558 58.183 243.582 58.5182C 243.606 58.9731 243.654 59.6196 243.726 60.4576C 243.798 61.2717 243.953 62.0858 244.193 62.8999C 244.456 63.714 244.839 64.4204 245.342 65.019C 245.845 65.6176 246.539 65.9169 247.425 65.9169C 248 65.9169 248.563 65.7612 249.113 65.45C 249.688 65.1387 250.239 64.7316 250.766 64.2288C 251.316 63.7021 251.831 63.1154 252.31 62.4689C 252.813 61.7985 253.268 61.1281 253.675 60.4576C 254.082 59.7872 254.441 59.1407 254.752 58.5182C 255.063 57.8956 255.327 57.3569 255.542 56.902C 255.662 56.6386 255.83 56.435 256.045 56.2914C 256.285 56.1477 256.536 56.0759 256.799 56.0759C 257.206 56.0759 257.53 56.2315 257.769 56.5428C 258.033 56.8301 258.164 57.1414 258.164 57.4766C 258.164 57.6442 258.128 57.8118 258.056 57.9794ZM 269.514 57.5484C 270.687 63.0795 272.387 65.845 274.614 65.845C 275.476 65.845 276.302 65.5338 277.092 64.9112C 277.882 64.2647 278.612 63.4866 279.283 62.5767C 279.977 61.6429 280.588 60.6612 281.115 59.6316C 281.641 58.602 282.072 57.7041 282.408 56.9379C 282.647 56.3632 283.066 56.0759 283.665 56.0759C 284.048 56.0759 284.371 56.2196 284.634 56.5069C 284.898 56.7942 285.029 57.1055 285.029 57.4407C 285.029 57.6322 284.993 57.7999 284.922 57.9435C 284.754 58.3506 284.503 58.9013 284.167 59.5957C 283.856 60.2661 283.461 60.9964 282.982 61.7865C 282.527 62.5527 282.012 63.3429 281.438 64.157C 280.863 64.9711 280.229 65.7014 279.534 66.3479C 278.84 66.9944 278.098 67.5331 277.307 67.9641C 276.541 68.3711 275.727 68.5747 274.865 68.5747C 273.261 68.5747 271.884 68.0239 270.735 66.9225C 269.586 65.7972 268.592 63.9535 267.754 61.3915C 266.604 63.8337 265.443 65.6056 264.27 66.707C 263.097 67.8084 261.828 68.3592 260.463 68.3592C 259.745 68.3592 259.05 68.2394 258.38 68C 257.709 67.7845 257.123 67.4134 256.62 66.8866C 256.117 66.3598 255.71 65.6894 255.399 64.8753C 255.087 64.0373 254.932 63.0196 254.932 61.8224C 254.932 60.1703 255.219 58.6499 255.794 57.2611C 256.368 55.8724 257.111 54.6871 258.021 53.7054C 258.93 52.6998 259.936 51.9216 261.037 51.3709C 262.163 50.8202 263.276 50.5448 264.378 50.5448C 264.737 50.5448 265.048 50.6765 265.311 50.9399C 265.575 51.1793 265.707 51.4906 265.707 51.8737C 265.707 52.2089 265.599 52.5082 265.383 52.7716C 265.168 53.035 264.881 53.1906 264.521 53.2385C 263.803 53.3343 263.037 53.5618 262.223 53.9209C 261.409 54.2801 260.654 54.8069 259.96 55.5012C 259.29 56.1717 258.727 57.0336 258.272 58.0872C 257.841 59.1407 257.625 60.3978 257.625 61.8584C 257.625 63.0556 257.865 63.9894 258.344 64.6598C 258.847 65.3302 259.565 65.6655 260.499 65.6655C 260.882 65.6655 261.289 65.5697 261.72 65.3781C 262.151 65.1626 262.606 64.7556 263.085 64.157C 263.588 63.5584 264.126 62.7084 264.701 61.607C 265.3 60.5055 265.958 59.0569 266.676 57.2611C 266.269 55.154 265.898 52.7237 265.563 49.9702C 265.228 47.2166 265.06 44.1398 265.06 40.7398C 265.06 39.2552 265.108 37.7108 265.204 36.1066C 265.3 34.4784 265.455 32.8981 265.671 31.3657C 265.886 29.8093 266.173 28.3368 266.533 26.948C 266.892 25.5593 267.323 24.3381 267.826 23.2846C 268.352 22.231 268.963 21.405 269.657 20.8064C 270.352 20.1838 271.142 19.8726 272.028 19.8726C 272.818 19.8726 273.488 20.0881 274.039 20.519C 274.59 20.95 275.033 21.5486 275.368 22.3148C 275.727 23.0811 275.991 24.0029 276.158 25.0804C 276.326 26.1579 276.41 27.3431 276.41 28.6361C 276.41 31.4136 276.17 34.1911 275.691 36.9686C 275.212 39.7461 274.614 42.4039 273.895 44.9419C 273.201 47.48 272.459 49.8265 271.669 51.9815C 270.878 54.1364 270.16 55.9921 269.514 57.5484ZM 273.716 28.6001C 273.716 28.0015 273.692 27.3551 273.644 26.6607C 273.62 25.9663 273.536 25.3198 273.393 24.7212C 273.273 24.0987 273.105 23.5839 272.89 23.1768C 272.674 22.7698 272.387 22.5663 272.028 22.5663C 271.429 22.5663 270.867 23.093 270.34 24.1466C 269.837 25.2001 269.394 26.5889 269.011 28.3128C 268.628 30.0128 268.316 31.9523 268.077 34.1312C 267.862 36.2862 267.754 38.4651 267.754 40.6679C 267.754 42.775 267.838 44.8821 268.005 46.9891C 268.173 49.0962 268.364 50.9758 268.58 52.628C 269.274 50.7843 269.933 48.8927 270.555 46.9532C 271.178 44.9898 271.717 42.9905 272.171 40.9553C 272.65 38.92 273.021 36.8728 273.285 34.8136C 273.572 32.7305 273.716 30.6593 273.716 28.6001Z"/>
</defs>
</svg>
